# xmcd CD database file
#
# Track frame offsets:
#	150
#	17589
#	33737
#	54682
#	68948
#	83609
#	103058
#	119020
#	136250
#	155604
#
# Disc length: 2393 seconds
#
# Revision: 0
# Processed by: cddbd v1.5.2PL0 Copyright (c) Steve Scherf et al.
# Submitted via: CDex 1.51
#
DISCID=8809570a
DTITLE=Arthur Ebeling and Chris Quinn - The Odd Couple
DYEAR=1900
DGENRE=Blues
TTITLE0=The Sporting Life Blues
TTITLE1=Smoke That Cigarette
TTITLE2=Sweet Georgia Brown
TTITLE3=Blue Moon
TTITLE4=Peach Pickin Time In Georgia
TTITLE5=Me And The Devil Blues
TTITLE6=You Always Hurt The One You Love
TTITLE7=Paper Doll
TTITLE8=Dream A Little Dream Of Me
TTITLE9=All Of Me
EXTD=
EXTT0=
EXTT1=
EXTT2=
EXTT3=
EXTT4=
EXTT5=
EXTT6=
EXTT7=
EXTT8=
EXTT9=
PLAYORDER=
